#!OML:ASF H:\Terrain\Patient Classification 1\Walking\liu\liu.ASF
:FULLY-SPECIFIED
:DEGREES
171
root -2.85047 16.3868 -36.1516 3.86289 0.646531 -2.68539
lowerback 7.26742 1.96728 -1.7807
upperback -3.85698 2.54386 1.23915
thorax -8.29056 1.3808 1.94248
lowerneck -3.10181 -3.88749 -6.56841
upperneck 6.51115 -5.25338 6.05744
head 3.05535 -2.59056 2.97911
rclavicle -2.26731e-014 -1.11319e-014
rhumerus -32.6874 1.57612 -79.4673
rradius 29.971
rwrist 3.37423
rhand -20.1239 -26.7578
rfingers 7.12502
rthumb 6.22018 -56.6465
lclavicle -2.26731e-014 -1.11319e-014
lhumerus -26.8936 -1.87349 88.6724
lradius 24.3731
lwrist -31.3355
lhand -28.3038 30.1998
lfingers 7.12502
lthumb -1.67933 60.1729
rfemur -23.3657 -6.90927 14.2588
rtibia 49.3374
rfoot -26.826 1.67801
rtoes -7.97973
lfemur -23.3583 6.19342 -8.69643
ltibia 47.1755
lfoot -23.0221 0.470665
ltoes -9.1386
172
root -2.85235 16.3846 -36.1512 3.88866 0.652223 -2.68289
lowerback 7.26789 1.96453 -1.79877
upperback -3.87496 2.53871 1.24361
thorax -8.31115 1.37977 1.95782
lowerneck -3.0988 -3.8856 -6.59248
upperneck 6.53971 -5.25146 6.0676
head 3.06584 -2.59 2.98742
rclavicle -4.12998e-014 -1.89839e-014
rhumerus -32.711 1.60915 -79.4865
rradius 29.9995
rwrist 3.34538
rhand -20.0685 -26.8188
rfingers 7.12502
rthumb 6.27365 -56.7059
lclavicle -4.12998e-014 -1.89839e-014
lhumerus -26.906 -1.87111 88.6739
lradius 24.3868
lwrist -31.2872
lhand -28.3234 30.2795
lfingers 7.12502
lthumb -1.69828 60.2525
rfemur -23.4152 -6.91747 14.2636
rtibia 49.3869
rfoot -26.8533 1.727
rtoes -7.81134
lfemur -23.4161 6.23019 -8.69672
ltibia 47.2216
lfoot -23.039 0.493406
ltoes -9.31759
173
root -2.85421 16.3808 -36.1502 3.88751 0.668213 -2.70851
lowerback 7.26804 1.95975 -1.76839
upperback -3.88049 2.53559 1.24351
thorax -8.31554 1.37664 1.94102
lowerneck -3.08157 -3.8889 -6.58194
upperneck 6.56517 -5.25776 6.05817
head 3.07093 -2.59344 2.98218
rclavicle 1.14379e-015 -3.57812e-015
rhumerus -32.7239 1.62406 -79.5134
rradius 30.0107
rwrist 3.35285
rhand -20.0703 -26.7505
rfingers 7.12502
rthumb 6.27191 -56.6377
lclavicle 1.14379e-015 -3.57812e-015
lhumerus -26.909 -1.88688 88.6672
lradius 24.4002
lwrist -31.2398
lhand -28.2827 30.4345
lfingers 7.12502
lthumb -1.65899 60.4078
rfemur -23.4311 -6.94515 14.2944
rtibia 49.4355
rfoot -26.8804 1.75378
rtoes -7.78488
lfemur -23.4428 6.22649 -8.65637
ltibia 47.2763
lfoot -23.0664 0.453196
ltoes -9.2069
174
root -2.85665 16.3776 -36.1494 3.87989 0.656019 -2.75947
lowerback 7.2876 1.96897 -1.73779
upperback -3.87044 2.5525 1.26343
thorax -8.31651 1.38373 1.94196
lowerneck -3.13114 -3.89096 -6.60604
upperneck 6.59222 -5.25848 6.07373
head 3.09132 -2.5932 2.9916
rclavicle -3.94153e-015 -1.58034e-014
rhumerus -32.6855 1.62875 -79.5162
rradius 30.004
rwrist 3.36784
rhand -20.0724 -26.6963
rfingers 7.12502
rthumb 6.26995 -56.5835
lclavicle -3.94153e-015 -1.58034e-014
lhumerus -26.8835 -1.89881 88.6783
lradius 24.4117
lwrist -31.1947
lhand -28.2118 30.4101
lfingers 7.12502
lthumb -1.59042 60.3839
rfemur -23.4483 -6.92828 14.3625
rtibia 49.4781
rfoot -26.8987 1.70637
rtoes -7.88833
lfemur -23.4632 6.2586 -8.58582
ltibia 47.3306
lfoot -23.0857 0.470501
ltoes -9.3059
175
root -2.85896 16.3756 -36.1483 3.87799 0.637239 -2.76929
lowerback 7.29255 1.96506 -1.7664
upperback -3.86335 2.54577 1.28552
thorax -8.31395 1.38267 1.98235
lowerneck -3.17889 -3.88033 -6.61263
upperneck 6.63297 -5.24033 6.04278
head 3.11199 -2.5846 2.98247
rclavicle -2.05152e-014 -1.98785e-014
rhumerus -32.6547 1.71049 -79.5381
rradius 30.0238
rwrist 3.34699
rhand -20.0554 -26.7362
rfingers 7.12502
rthumb 6.2863 -56.6229
lclavicle -2.05152e-014 -1.98785e-014
lhumerus -26.8652 -1.81605 88.6675
lradius 24.4173
lwrist -31.181
lhand -28.2668 30.3026
lfingers 7.12502
lthumb -1.64361 60.276
rfemur -23.468 -6.91985 14.3805
rtibia 49.5183
rfoot -26.9249 1.70869
rtoes -7.915
lfemur -23.4774 6.29321 -8.56311
ltibia 47.3839
lfoot -23.1262 0.434033
ltoes -9.25308
176
root -2.86102 16.3739 -36.1471 3.88005 0.643618 -2.76091
lowerback 7.29604 1.97218 -1.77247
upperback -3.86818 2.55384 1.27479
thorax -8.32138 1.38669 1.97303
lowerneck -3.15578 -3.89368 -6.60144
upperneck 6.63166 -5.25932 6.03084
head 3.10757 -2.59445 2.97561
rclavicle -1.52544e-014 -5.56597e-015
rhumerus -32.6392 1.68574 -79.5533
rradius 30.0149
rwrist 3.3975
rhand -20.0345 -26.8348
rfingers 7.12502
rthumb 6.30651 -56.7209
lclavicle -1.52544e-014 -5.56597e-015
lhumerus -26.8559 -1.83301 88.6645
lradius 24.4087
lwrist -31.2046
lhand -28.2578 30.4639
lfingers 7.12502
lthumb -1.63489 60.4374
rfemur -23.483 -6.94504 14.3755
rtibia 49.5569
rfoot -26.9473 1.73195
rtoes -7.9809
lfemur -23.4991 6.31991 -8.56368
ltibia 47.4281
lfoot -23.1513 0.423946
ltoes -9.27474
177
root -2.86263 16.3713 -36.1462 3.87877 0.653752 -2.74883
lowerback 7.29899 1.96558 -1.7882
upperback -3.8697 2.54312 1.27299
thorax -8.32487 1.3823 1.98143
lowerneck -3.14582 -3.88515 -6.59957
upperneck 6.63599 -5.24827 6.02519
head 3.10604 -2.58925 2.97394
rclavicle 9.17981e-015 1.53064e-014
rhumerus -32.6285 1.71042 -79.5703
rradius 30.0228
rwrist 3.4372
rhand -20.0375 -26.7938
rfingers 7.12502
rthumb 6.30362 -56.68
lclavicle 9.17981e-015 1.53064e-014
lhumerus -26.8642 -1.80443 88.6541
lradius 24.4104
lwrist -31.2186
lhand -28.259 30.321
lfingers 7.12502
lthumb -1.6361 60.2944
rfemur -23.4881 -6.97997 14.3623
rtibia 49.5959
rfoot -26.987 1.75601
rtoes -7.95302
lfemur -23.514 6.33057 -8.56854
ltibia 47.4773
lfoot -23.185 0.379699
ltoes -9.13445
178
root -2.8643 16.3689 -36.145 3.86974 0.662705 -2.78308
lowerback 7.30343 1.96414 -1.75203
upperback -3.85428 2.54516 1.27625
thorax -8.30926 1.38112 1.96436
lowerneck -3.19141 -3.88986 -6.57009
upperneck 6.65656 -5.25274 6.00147
head 3.11987 -2.59073 2.95942
rclavicle -6.47293e-015 -1.23246e-014
rhumerus -32.5737 1.68412 -79.5845
rradius 30.0188
rwrist 3.42241
rhand -20.0182 -26.781
rfingers 7.12502
rthumb 6.32229 -56.6666
lclavicle -6.47293e-015 -1.23246e-014
lhumerus -26.8052 -1.81731 88.6406
lradius 24.3773
lwrist -31.2273
lhand -28.2674 30.3468
lfingers 7.12502
lthumb -1.6442 60.3202
rfemur -23.4905 -7.01499 14.4041
rtibia 49.6359
rfoot -27.0171 1.77379
rtoes -7.96116
lfemur -23.5291 6.36244 -8.5211
ltibia 47.5199
lfoot -23.2105 0.381021
ltoes -9.19281
179
root -2.86625 16.366 -36.1442 3.87262 0.681793 -2.78644
lowerback 7.29755 1.95755 -1.7584
upperback -3.8645 2.5362 1.28152
thorax -8.31699 1.37744 1.97487
lowerneck -3.11747 -3.88073 -6.5769
upperneck 6.63166 -5.24357 6.00466
head 3.09701 -2.58737 2.96307
rclavicle -3.30037e-014 -9.34288e-015
rhumerus -32.5985 1.70245 -79.6006
rradius 30.0761
rwrist 3.42419
rhand -19.9578 -26.8722
rfingers 7.12502
rthumb 6.38055 -56.7561
lclavicle -3.30037e-014 -9.34288e-015
lhumerus -26.852 -1.78903 88.637
lradius 24.3979
lwrist -31.2697
lhand -28.1834 30.4237
lfingers 7.12502
lthumb -1.56302 60.3977
rfemur -23.5098 -7.07456 14.4129
rtibia 49.6761
rfoot -27.0461 1.7878
rtoes -8.05547
lfemur -23.5656 6.36751 -8.50744
ltibia 47.5753
lfoot -23.2273 0.339574
ltoes -9.16647
180
root -2.86787 16.3638 -36.1429 3.86631 0.689944 -2.77606
lowerback 7.30765 1.9522 -1.76509
upperback -3.86218 2.52755 1.27402
thorax -8.31988 1.37333 1.97171
lowerneck -3.15019 -3.89009 -6.55725
upperneck 6.66707 -5.25541 5.98619
head 3.11465 -2.59284 2.95212
rclavicle -8.9127e-015 1.2424e-014
rhumerus -32.5774 1.69566 -79.6203
rradius 30.0794
rwrist 3.44863
rhand -19.9314 -26.9238
rfingers 7.12502
rthumb 6.40604 -56.8069
lclavicle -8.9127e-015 1.2424e-014
lhumerus -26.8343 -1.74942 88.6177
lradius 24.3791
lwrist -31.3264
lhand -28.2398 30.2907
lfingers 7.12502
lthumb -1.61755 60.2643
rfemur -23.5155 -7.12462 14.4015
rtibia 49.7164
rfoot -27.0683 1.84801
rtoes -7.96814
lfemur -23.5776 6.36921 -8.51293
ltibia 47.6221
lfoot -23.2622 0.373327
ltoes -9.2734
181
root -2.86957 16.3612 -36.1419 3.86945 0.710199 -2.83037
lowerback 7.30986 1.94741 -1.71678
upperback -3.85424 2.52749 1.28978
thorax -8.31099 1.37099 1.9613
lowerneck -3.18917 -3.88722 -6.55664
upperneck 6.68257 -5.2503 5.99094
head 3.12719 -2.58955 2.95346
rclavicle -4.28629e-015 9.34288e-015
rhumerus -32.5349 1.6726 -79.626
rradius 30.0856
rwrist 3.45939
rhand -19.9151 -26.8621
rfingers 7.12502
rthumb 6.42181 -56.7447
lclavicle -4.28629e-015 9.34288e-015
lhumerus -26.797 -1.74078 88.6148
lradius 24.3523
lwrist -31.3652
lhand -28.1695 30.3584
lfingers 7.12502
lthumb -1.54966 60.3325
rfemur -23.5367 -7.15294 14.4697
rtibia 49.7515
rfoot -27.0878 1.87299
rtoes -7.89744
lfemur -23.6157 6.36039 -8.44358
ltibia 47.6792
lfoot -23.2853 0.358793
ltoes -9.21315
182
root -2.87122 16.359 -36.1409 3.86824 0.715446 -2.85054
lowerback 7.31958 1.93961 -1.70403
upperback -3.85903 2.51875 1.29528
thorax -8.32106 1.3663 1.96089
lowerneck -3.16072 -3.88113 -6.55324
upperneck 6.67925 -5.24381 5.99105
head 3.12003 -2.58667 2.9535
rclavicle -1.82657e-014 -4.57205e-015
rhumerus -32.5323 1.71635 -79.6626
rradius 30.1201
rwrist 3.40135
rhand -19.9426 -26.9525
rfingers 7.12502
rthumb 6.3952 -56.8359
lclavicle -1.82657e-014 -4.57205e-015
lhumerus -26.8025 -1.7305 88.6038
lradius 24.3523
lwrist -31.3348
lhand -28.1105 30.3613
lfingers 7.12502
lthumb -1.49263 60.3359
rfemur -23.5527 -7.18005 14.5006
rtibia 49.7856
rfoot -27.1069 1.84185
rtoes -8.04196
lfemur -23.6348 6.38329 -8.41504
ltibia 47.7303
lfoot -23.3178 0.391779
ltoes -9.32982
183
root -2.87345 16.357 -36.1397 3.87181 0.729348 -2.86377
lowerback 7.30494 1.92729 -1.69694
upperback -3.8465 2.50358 1.30216
thorax -8.29814 1.35846 1.96706
lowerneck -3.21634 -3.87768 -6.57409
upperneck 6.72509 -5.23757 6.00528
head 3.14737 -2.58288 2.96217
rclavicle 1.17726e-014 1.88845e-014
rhumerus -32.4769 1.71224 -79.6779
rradius 30.1108
rwrist 3.44186
rhand -20.0014 -26.7444
rfingers 7.12502
rthumb 6.33847 -56.6295
lclavicle 1.17726e-014 1.88845e-014
lhumerus -26.7626 -1.68669 88.5853
lradius 24.3165
lwrist -31.4083
lhand -28.2321 30.2717
lfingers 7.12502
lthumb -1.61008 60.2454
rfemur -23.5665 -7.22497 14.5196
rtibia 49.8175
rfoot -27.1397 1.90586
rtoes -7.9012
lfemur -23.6658 6.38713 -8.39115
ltibia 47.7849
lfoot -23.335 0.39225
ltoes -9.30588
